<?xml version="1.0" encoding="UTF-8"?>
<svg id="Layer_1" data-name="Layer 1" xmlns="http://www.w3.org/2000/svg" viewBox="0 0 991.56 955.27">
  <path d="M859.81,789.37c-41.67-46-124.3-62.14-182.77-75.3,4.84-21.39,45.4-38.89,62.87-46.65,18.66-8.29,36.68-16.28,54.62-25.72,12.02-6.32,20.49-14.99,28.95-25.23,11.77-14.25,26.41-25.26,41.51-36.02,17.71-12.62,34.89-24.53,51.67-38.02,17.19-13.82,27.47-31.04,39.12-49.2l24.9-38.83c4.92-7.67,8.71-16.07,10.61-24.84,1.45-6.71-3.14-12.79-9.82-13.32-8.32-.65-17.08.38-25.4,2.73-30.33,8.59-59.69,15.9-90.53,22.76-29.1,6.47-56.88,13.17-85.47,21.12-14.81,4.12-27.88,9.81-40.87,18.34-36.79,24.15-67.45,54.26-94.77,90.32-1.71-17.52,2.53-32.65,3.12-48.95l3.65-100.85-.27-127.65c-.07-33.46-2.47-66.28,3.57-98.93l8.21-44.4c-18.38,17.47-31.85,37.27-45.68,57.46l-34.72,50.66c-45.27,66.06-70.4,151.88-84.55,230.47-2.76-12.34-4.41-22.52-9.36-32.84-4.57-9.54-9.83-18.63-12.9-28.8-10.79-35.78-23.59-69.68-42.38-102.07l-50-86.24c-16.58-28.6-33.5-55.55-48.16-85.14-10.18-20.55-21.29-39.01-36.59-56.2-14.78-16.6-29.65-31.75-45.61-47.4-15.79-15.48-30.28-31.4-44.74-48.05-1.14-1.31-4.63-2.67-6.16-2.56-7.41.5,3.64,42.26,5.35,48.28l19.45,68.47,24.05,111.13,23.24,108.6c9.34,43.65,42.77,93.17,40.25,140.87l-69.27-62.3c-38.52-34.65-84.06-56.72-134.97-66.52-18.01-3.47-35.31-4.74-53.18-1.48-28.13,5.12-48.27,25.13-54.27,53.15-4.82,22.5-2.28,45.05,3.95,67.51,8.01,28.84,22.11,53.88,39.3,78.4,32.9,46.91,74.83,84.96,126.25,110.51,27.85,13.84,55.62,24.9,85.95,31.79l72.56,16.47c-17.77,3.53-34.21,4.43-50.72,11.38-29.9,12.59-51.63,36.84-62.38,67.66-8.12,23.28-12.87,47.03-15.28,71.71-1.96,20.07,8.37,37.77,24.94,48.16,14.67,9.2,30.77,14.45,47.8,18.78l81.63,20.73c45.11,11.46,83.54,21.16,124.54-3.09,46.61-27.58,64.48-55.38,76.55-108.74.46-2.02,2.68-5.48,4.32-6.2,7.61-3.34,23.44,16.12,28.49,22.3l36.24,44.27c13.31,16.26,29.59,27.41,49.74,33.88,22.76,7.3,45.54,12.34,69.49,15.6l73.19,9.95c20.3,2.76,37.71-9.51,44.74-27.51,10.34-26.47,7.26-49.09,11.5-75.7,3.43-21.52,0-41.57-15.51-58.68Z"/>
</svg>